# xmcd
# 
# Track frame offsets:
#     150
#     16847
#     30172
#     42730
#     64635
#     77712
#     90202
#     103567
#     113135
#     127152
#     143392
#     156750
#     176822
#     193155
# 
# Disc length: 2760
# 
# Revision: 2
# Processed by: cddbd v1.5.2PL0 Copyright (c) Steve Scherf et al.
# Submitted via: fre:ac v1.0.31
# 
DISCID=ac0ac60e
DTITLE=Various Artist - Truck-Hits CD 1
DYEAR=0
DGENRE=Country
TTITLE0=The Tennessee Stars - Tom Dooley
TTITLE1=Johnny Hill - Kleine Helden
TTITLE2=Ralf Paulsen - Ich fahr´ ´nen Supertruck
TTITLE3=Tom Astor - Kameraden der Strasse
TTITLE4=Larry Schuba and Western Union - Highway Driver 59
TTITLE5=Gunter Gabriel - König der Tramps
TTITLE6=Tom Astor - Partner fahr´ rechts
TTITLE7=Daliah Lavi - Schalt´ dein Radio ein
TTITLE8=Volker Lechtenbrink - Hilf mir durch die Nacht
TTITLE9=Gunter Gabriel - Ohne Moos nichts los
TTITLE10=Truck Stop - Arizona-Arizona
TTITLE11=Torfrock - Beinhart
TTITLE12=Larry Schuba and Western Union - Nach Süden
TTITLE13=Tom Astor - Trucker lady
EXTD=
EXTT0=
EXTT1=
EXTT2=
EXTT3=
EXTT4=
EXTT5=
EXTT6=
EXTT7=
EXTT8=
EXTT9=
EXTT10=
EXTT11=
EXTT12=
EXTT13=
PLAYORDER=
